<?xml version="1.0" encoding="utf-8"?>
<!-- Generator: Adobe Illustrator 15.1.0, SVG Export Plug-In . SVG Version: 6.00 Build 0)  -->
<!DOCTYPE svg PUBLIC "-//W3C//DTD SVG 1.1//EN" "http://www.w3.org/Graphics/SVG/1.1/DTD/svg11.dtd">
<svg version="1.1" id="Layer_1" xmlns="http://www.w3.org/2000/svg" xmlns:xlink="http://www.w3.org/1999/xlink" x="0px" y="0px"
     width="348.385px" height="191px" viewBox="0 0 348.385 191" enable-background="new 0 0 348.385 191" xml:space="preserve">
<path d="M310.221,38.818V15.574h1.666v23.244H310.221z M310.221,56.05v-9.096h1.666v9.096H310.221z M313.504,38.818   V15.574h1.668v23.244H313.504z M313.504,56.05v-9.096h1.668v9.096H313.504z M316.84,24.772v-9.097h1.617v9.097H316.84z    M316.84,38.818v-8.083h1.617v8.083H316.84z M316.84,56.05v-9.096h1.617v9.096H316.84z M320.125,24.772v-9.097h1.615v9.097H320.125   z M320.125,38.818v-8.083h1.615v8.083H320.125z M320.125,56.05v-9.096h1.615v9.096H320.125z M326.693,24.772v-9.097h1.668v9.097   H326.693z M326.693,38.818v-8.083h1.668v8.083H326.693z M326.693,56.05v-9.096h1.668v9.096H326.693z M333.312,24.772v-9.097h1.668   v9.097H333.312z M333.312,56V30.736l1.668,1.008v23.244L333.312,56z M336.598,24.772v-9.097h1.668v9.097H336.598z M336.598,54.282   V33.463L338.266,37v13.745L336.598,54.282z" fill="#000000"/>
</svg>
