<?xml version="1.0" encoding="utf-8"?>
<!-- Generator: Adobe Illustrator 15.1.0, SVG Export Plug-In . SVG Version: 6.00 Build 0)  -->
<!DOCTYPE svg PUBLIC "-//W3C//DTD SVG 1.1//EN" "http://www.w3.org/Graphics/SVG/1.1/DTD/svg11.dtd">
<svg version="1.1" id="Layer_1" xmlns="http://www.w3.org/2000/svg" xmlns:xlink="http://www.w3.org/1999/xlink" x="0px" y="0px"
     width="348.385px" height="191px" viewBox="0 0 348.385 191" enable-background="new 0 0 348.385 191" xml:space="preserve">
<path d="M158.424,92.331v-10.61l1.668-3.539v14.149H158.424z M158.424,111.181v-10.613h1.668v14.149   L158.424,111.181z M161.708,94.301V76.615l1.667-0.504v18.191H161.708z M161.708,116.133V98.446h1.667v18.191L161.708,116.133z    M168.328,84.297v-8.085h1.617v8.085H168.328z M168.328,100.467v-8.084h1.617v8.084H168.328z M168.328,100.467v-8.084h1.617v8.084   H168.328z M168.328,100.467v-8.084h1.617v8.084H168.328z M168.328,116.637v-8.135h1.617v8.135H168.328z M171.613,84.297v-8.085   h1.667v8.085H171.613z M171.613,100.467v-8.084h1.667v8.084H171.613z M171.613,100.467v-8.084h1.667v8.084H171.613z    M171.613,100.467v-8.084h1.667v8.084H171.613z M171.613,116.637v-8.135h1.667v8.135H171.613z M174.897,84.297v-8.085h1.668v8.085   H174.897z M174.897,100.467v-8.084h1.668v8.084H174.897z M174.897,100.467v-8.084h1.668v8.084H174.897z M174.897,100.467v-8.084   h1.668v8.084H174.897z M174.897,116.637v-8.135h1.668v8.135H174.897z M181.517,94.301V76.11l1.667,0.504v17.687H181.517z    M181.517,116.637V98.446h1.667v17.687L181.517,116.637z M184.801,92.382v-14.15l1.667,3.539v10.611H184.801z M184.801,114.717   v-14.149h1.667v10.613L184.801,114.717z" fill="#000000"/>
</svg>
