<?xml version="1.0" encoding="utf-8"?>
<!-- Generator: Adobe Illustrator 15.1.0, SVG Export Plug-In . SVG Version: 6.00 Build 0)  -->
<!DOCTYPE svg PUBLIC "-//W3C//DTD SVG 1.1//EN" "http://www.w3.org/Graphics/SVG/1.1/DTD/svg11.dtd">
<svg version="1.1" id="Layer_1" xmlns="http://www.w3.org/2000/svg" xmlns:xlink="http://www.w3.org/1999/xlink" x="0px" y="0px"
     width="348.385px" height="191px" viewBox="0 0 348.385 191" enable-background="new 0 0 348.385 191" xml:space="preserve">
<path d="M235.989,155.748h-1.668v-8.136l1.668-1.263V155.748z M234.321,162.519h1.668v13.542l-1.668,1.213V162.519z    M238.819,173.939l1.667-1.213v-29.712l-1.667,1.264V173.939z M242.103,171.412l1.668-1.211v-29.714l-1.668,1.264V171.412z    M245.489,168.786l1.667-1.213V137.86l-1.667,1.263V168.786z M250.391,167.37l-1.667-0.911v-29.712l1.667,0.961V167.37z    M253.725,169.34l-1.667-0.958v-29.714l1.667,1.012V169.34z M260.294,173.334l-1.667-0.962V142.66l1.667,1.009V173.334z    M266.964,155.748h-1.718v-9.146l1.718,1.011V155.748z M266.964,162.519h-1.718v13.794l1.718,0.961V162.519z" fill="#000000"/>
</svg>
