<?xml version="1.0" encoding="utf-8"?>
<!-- Generator: Adobe Illustrator 15.1.0, SVG Export Plug-In . SVG Version: 6.00 Build 0)  -->
<!DOCTYPE svg PUBLIC "-//W3C//DTD SVG 1.1//EN" "http://www.w3.org/Graphics/SVG/1.1/DTD/svg11.dtd">
<svg version="1.1" id="Layer_1" xmlns="http://www.w3.org/2000/svg" xmlns:xlink="http://www.w3.org/1999/xlink" x="0px" y="0px"
     width="348.385px" height="191px" viewBox="0 0 348.385 191" enable-background="new 0 0 348.385 191" xml:space="preserve">
<path d="M158.424,28.914v-7.78l1.668-3.032v10.812H158.424z M158.424,50.392v-7.783h1.668v10.812L158.424,50.392z    M165.044,28.964v-13.34h1.617v13.34H165.044z M165.044,55.949v-13.34h1.617v13.34H165.044z M168.328,26.742V15.625h1.617v11.117   H168.328z M168.328,56V44.883h1.617V56H168.328z M174.897,25.731V15.625h1.668v10.106H174.897z M174.897,39.83v-8.085h1.668v8.085   H174.897z M174.897,55.949V45.844h1.668v10.105H174.897z M178.232,25.731V15.625h1.617v10.106H178.232z M178.232,39.83v-8.085   h1.617v8.085H178.232z M178.232,55.949V45.844h1.617v10.105H178.232z M181.517,56V15.574l1.667,0.507v39.414L181.517,56z    M184.801,33.917V17.749l1.667,3.538v12.63H184.801z M184.801,53.929V37.758h1.667v12.634L184.801,53.929z" fill="#000000"/>
</svg>
