<?xml version="1.0" encoding="utf-8"?>
<!-- Generator: Adobe Illustrator 15.1.0, SVG Export Plug-In . SVG Version: 6.00 Build 0)  -->
<!DOCTYPE svg PUBLIC "-//W3C//DTD SVG 1.1//EN" "http://www.w3.org/Graphics/SVG/1.1/DTD/svg11.dtd">
<svg version="1.1" id="Layer_1" xmlns="http://www.w3.org/2000/svg" xmlns:xlink="http://www.w3.org/1999/xlink" x="0px" y="0px"
     width="348.385px" height="191px" viewBox="0 0 348.385 191" enable-background="new 0 0 348.385 191" xml:space="preserve">
<path d="M6.631,111.08V81.771l1.668-3.032v35.37L6.631,111.08z M9.916,115.625V77.223l1.667-1.012v40.426   L9.916,115.625z M13.251,84.297v-8.085h1.617v8.085H13.251z M13.251,100.467v-8.084h1.617v8.084H13.251z M13.251,116.536v-8.085   h1.617v8.136L13.251,116.536z M19.82,84.297v-8.085h1.667v8.085H19.82z M19.82,100.467v-8.084h1.667v8.084H19.82z M19.82,116.586   v-8.136h1.667v8.136H19.82z M23.104,84.297v-8.085h1.668v8.085H23.104z M23.104,100.467v-8.084h1.668v8.084H23.104z    M23.104,116.586v-8.136h1.668v8.136H23.104z M29.723,86.317V76.211l1.667,0.507v9.598H29.723z M29.723,116.637V92.382l1.667,0.503   v23.247L29.723,116.637z M33.007,86.317v-8.084l1.668,3.032v5.052H33.007z M33.007,114.616V94.402l1.668,3.032v14.149   L33.007,114.616z" fill="#000000"/>
</svg>
