<?xml version="1.0" encoding="utf-8"?>
<!-- Generator: Adobe Illustrator 15.1.0, SVG Export Plug-In . SVG Version: 6.00 Build 0)  -->
<!DOCTYPE svg PUBLIC "-//W3C//DTD SVG 1.1//EN" "http://www.w3.org/Graphics/SVG/1.1/DTD/svg11.dtd">
<svg version="1.1" id="Layer_1" xmlns="http://www.w3.org/2000/svg" xmlns:xlink="http://www.w3.org/1999/xlink" x="0px" y="0px"
     width="348.385px" height="191px" viewBox="0 0 348.385 191" enable-background="new 0 0 348.385 191" xml:space="preserve">
<path d="M82.528,29.825V21.74l1.667-3.537v11.622H82.528z M82.528,55.949V42.761l1.667-0.759v13.947H82.528z    M85.812,29.825V16.687l1.667-1.011v14.15H85.812z M85.812,55.949V41.094l1.667-0.76v15.615H85.812z M92.431,23.761v-8.136h1.618   v8.136H92.431z M92.431,56V37.506l1.618-0.759V56H92.431z M99,23.66v-8.085h1.668v8.085H99z M99,42.609v-8.489l1.668-0.759v8.236   L99,42.609z M99,56v-8.085h1.668V56H99z M102.335,23.66v-8.085h1.617v8.085H102.335z M102.335,40.589v-8.34l1.617-0.756v8.084   L102.335,40.589z M102.335,56v-8.085h1.617V56H102.335z M105.62,38.566V15.574l1.667,1.012v20.971L105.62,38.566z M105.62,56   v-8.085h1.667V56H105.62z M108.904,36.545V18.102l1.668,3.032v14.399L108.904,36.545z M108.904,56v-8.085h1.668V56H108.904z" fill="#000000"/>
</svg>
