<?xml version="1.0" encoding="utf-8"?>
<!-- Generator: Adobe Illustrator 15.1.0, SVG Export Plug-In . SVG Version: 6.00 Build 0)  -->
<!DOCTYPE svg PUBLIC "-//W3C//DTD SVG 1.1//EN" "http://www.w3.org/Graphics/SVG/1.1/DTD/svg11.dtd">
<svg version="1.1" id="Layer_1" xmlns="http://www.w3.org/2000/svg" xmlns:xlink="http://www.w3.org/1999/xlink" x="0px" y="0px"
     width="348.385px" height="191px" viewBox="0 0 348.385 191" enable-background="new 0 0 348.385 191" xml:space="preserve">
<path d="M310.221,110.32V83.033l1.666-1.768v30.824L310.221,110.32z M313.504,114.109V79.748l1.668-1.516v37.393   L313.504,114.109z M313.504,114.109V79.748l1.668-1.516v37.393L313.504,114.109z M320.125,88.593V76.262h1.615v10.815   L320.125,88.593z M320.125,116.688v-12.331l1.615,1.517v10.814H320.125z M323.408,86.418V76.312h1.668v10.105H323.408z    M323.408,116.637v-10.106h1.668v10.106H323.408z M326.693,87.077V76.262h1.668v12.332L326.693,87.077z M326.693,116.688v-10.814   l1.668-1.517v12.331H326.693z M330.029,116.637V76.211l1.615,1.517v37.393L330.029,116.637z M330.029,116.637V76.211l1.615,1.517   v37.393L330.029,116.637z M338.266,109.816V83.033l-1.619-1.768v30.319L338.266,109.816z" fill="#000000"/>
</svg>
