<?xml version="1.0" encoding="utf-8"?>
<!-- Generator: Adobe Illustrator 15.1.0, SVG Export Plug-In . SVG Version: 6.00 Build 0)  -->
<!DOCTYPE svg PUBLIC "-//W3C//DTD SVG 1.1//EN" "http://www.w3.org/Graphics/SVG/1.1/DTD/svg11.dtd">
<svg version="1.1" id="Layer_1" xmlns="http://www.w3.org/2000/svg" xmlns:xlink="http://www.w3.org/1999/xlink" x="0px" y="0px"
     width="348.385px" height="191px" viewBox="0 0 348.385 191" enable-background="new 0 0 348.385 191" xml:space="preserve">
<path d="M6.631,152.666l1.668-0.96v24.659l-1.668,0.911V152.666z M13.2,149.078l1.668-0.961v24.659l-1.668,0.911   V149.078z M16.484,147.209l1.718-0.961v24.659l-1.718,0.911V147.209z M19.87,145.337l1.668-0.958v24.659l-1.668,0.911V145.337z    M23.154,143.367l1.667-0.959v24.66l-1.667,0.908V143.367z M26.438,141.397l1.668-0.961v24.662l-1.668,0.908V141.397z    M33.059,137.658l1.667-0.911v24.457l-1.667,0.911V137.658z" fill="#000000"/>
</svg>
