<?xml version="1.0" encoding="utf-8"?>
<!-- Generator: Adobe Illustrator 15.1.0, SVG Export Plug-In . SVG Version: 6.00 Build 0)  -->
<!DOCTYPE svg PUBLIC "-//W3C//DTD SVG 1.1//EN" "http://www.w3.org/Graphics/SVG/1.1/DTD/svg11.dtd">
<svg version="1.1" id="Layer_1" xmlns="http://www.w3.org/2000/svg" xmlns:xlink="http://www.w3.org/1999/xlink" x="0px" y="0px"
     width="348.385px" height="191px" viewBox="0 0 348.385 191" enable-background="new 0 0 348.385 191" xml:space="preserve">
<path d="M158.424,142.103h1.668v17.889h-1.668V142.103z M158.424,167.875h1.668v8.237h-1.668V167.875z    M161.708,142.103h1.667v17.889h-1.667V142.103z M161.708,167.875h1.667v8.237h-1.667V167.875z M165.044,142.103h1.617v17.889   h-1.617V142.103z M165.044,167.875h1.617v8.237h-1.617V167.875z M171.663,142.103h1.668v17.889h-1.668V142.103z M171.663,167.875   h1.668v8.237h-1.668V167.875z M174.948,142.103h1.667v17.889h-1.667V142.103z M174.948,167.875h1.667v8.237h-1.667V167.875z    M178.283,142.103h1.617v17.889h-1.617V142.103z M178.283,167.875h1.617v8.237h-1.617V167.875z M184.852,142.103h1.667v17.889   h-1.667V142.103z M184.852,167.875h1.667v8.237h-1.667V167.875z" fill="#000000"/>
</svg>
