<?xml version="1.0" encoding="utf-8"?>
<!-- Generator: Adobe Illustrator 15.1.0, SVG Export Plug-In . SVG Version: 6.00 Build 0)  -->
<!DOCTYPE svg PUBLIC "-//W3C//DTD SVG 1.1//EN" "http://www.w3.org/Graphics/SVG/1.1/DTD/svg11.dtd">
<svg version="1.1" id="Layer_1" xmlns="http://www.w3.org/2000/svg" xmlns:xlink="http://www.w3.org/1999/xlink" x="0px" y="0px"
     width="348.385px" height="191px" viewBox="0 0 348.385 191" enable-background="new 0 0 348.385 191" xml:space="preserve">
<path d="M82.528,90.361V76.211h1.667v14.149H82.528z M82.528,116.637v-10.106h1.667v10.106H82.528z M89.147,85.359   v-9.097h1.618v9.097H89.147z M89.147,116.637V103.55l1.618-1.87v14.958H89.147z M95.716,85.359v-9.097h1.667v9.097H95.716z    M95.716,110.928V95.919l1.667-1.87v15.109L95.716,110.928z M99,85.359v-9.097h1.668v9.097H99z M99,107.137V91.877l1.668-1.87   v15.361L99,107.137z M102.335,103.55V76.211h1.617v25.52L102.335,103.55z M105.62,100.063v-23.75h1.667v21.982L105.62,100.063z    M108.904,96.627V76.262h1.668v18.446L108.904,96.627z" fill="#000000"/>
</svg>
