<?xml version="1.0" encoding="utf-8"?>
<!-- Generator: Adobe Illustrator 15.1.0, SVG Export Plug-In . SVG Version: 6.00 Build 0)  -->
<!DOCTYPE svg PUBLIC "-//W3C//DTD SVG 1.1//EN" "http://www.w3.org/Graphics/SVG/1.1/DTD/svg11.dtd">
<svg version="1.1" id="Layer_1" xmlns="http://www.w3.org/2000/svg" xmlns:xlink="http://www.w3.org/1999/xlink" x="0px" y="0px"
     width="348.385px" height="191px" viewBox="0 0 348.385 191" enable-background="new 0 0 348.385 191" xml:space="preserve">
<path d="M234.321,95.011V81.872l1.668-3.537v20.212L234.321,95.011z M234.321,111.584v-5.053h1.668v8.085   L234.321,111.584z M237.605,99.456V77.223l1.667-1.012v24.255L237.605,99.456z M237.605,115.625v-9.095h1.667v10.106   L237.605,115.625z M244.225,84.297v-8.085h1.617v8.085H244.225z M244.225,100.467v-8.084h1.617v8.084H244.225z M244.225,116.586   v-8.136h1.617v8.136H244.225z M247.51,84.297v-8.085h1.667v8.085H247.51z M247.51,100.467v-8.084h1.667v8.084H247.51z    M247.51,116.586v-8.136h1.667v8.136H247.51z M254.128,84.297v-8.085h1.618v8.085H254.128z M254.128,100.467v-8.084h1.618v8.084   H254.128z M254.128,116.586v-8.136h1.618v8.136H254.128z M257.413,116.637V76.211l1.667,1.012v38.402L257.413,116.637z    M260.698,114.616V78.232l1.667,3.032v30.319L260.698,114.616z" fill="#000000"/>
</svg>
