<?xml version="1.0" encoding="utf-8"?>
<!-- Generator: Adobe Illustrator 15.1.0, SVG Export Plug-In . SVG Version: 6.00 Build 0)  -->
<!DOCTYPE svg PUBLIC "-//W3C//DTD SVG 1.1//EN" "http://www.w3.org/Graphics/SVG/1.1/DTD/svg11.dtd">
<svg version="1.1" id="Layer_1" xmlns="http://www.w3.org/2000/svg" xmlns:xlink="http://www.w3.org/1999/xlink" x="0px" y="0px"
     width="348.385px" height="191px" viewBox="0 0 348.385 191" enable-background="new 0 0 348.385 191" xml:space="preserve">
<path d="M6.631,34.07V23.962l1.668-1.009v10.106L6.631,34.07z M6.631,56V42.66h1.668V56H6.631z M13.251,30.786   V20.678l1.617-1.009v10.105L13.251,30.786z M13.251,56V42.66h1.617V56H13.251z M16.535,29.015V18.909l1.617-1.008v10.105   L16.535,29.015z M16.535,56V42.66h1.617V56H16.535z M19.82,56V17.343l1.667-1.009V56H19.82z M23.104,56V15.574h1.668V56H23.104z    M29.723,56V37.809h1.667V56H29.723z M33.007,56V37.809h1.668V56H33.007z" fill="#000000"/>
</svg>
