<?xml version="1.0" encoding="utf-8"?>
<!-- Generator: Adobe Illustrator 15.1.0, SVG Export Plug-In . SVG Version: 6.00 Build 0)  -->
<!DOCTYPE svg PUBLIC "-//W3C//DTD SVG 1.1//EN" "http://www.w3.org/Graphics/SVG/1.1/DTD/svg11.dtd">
<svg version="1.1" id="Layer_1" xmlns="http://www.w3.org/2000/svg" xmlns:xlink="http://www.w3.org/1999/xlink" x="0px" y="0px"
     width="348.385px" height="191px" viewBox="0 0 348.385 191" enable-background="new 0 0 348.385 191" xml:space="preserve">
<path d="M234.321,49.935V28.712l1.668-1.008v22.231H234.321z M240.941,49.935V24.722l1.617-1.062v26.275H240.941z    M244.225,34.877V22.751l1.617-1.264v12.127L244.225,34.877z M244.225,49.935v-8.084h1.617v8.084H244.225z M247.51,32.806V20.678   l1.667-1.262v12.127L247.51,32.806z M247.51,49.935v-8.084h1.667v8.084H247.51z M254.128,28.964V16.838l1.618-1.264v12.129   L254.128,28.964z M254.128,56V39.83h1.618V56H254.128z M257.413,27.804V15.675h1.667v12.128H257.413z M257.413,56V39.83h1.667V56   H257.413z M260.698,27.804V15.675h1.667v12.128H260.698z M260.698,56V39.83h1.667V56H260.698z" fill="#000000"/>
</svg>
