<?xml version="1.0" encoding="utf-8"?>
<!-- Generator: Adobe Illustrator 15.1.0, SVG Export Plug-In . SVG Version: 6.00 Build 0)  -->
<!DOCTYPE svg PUBLIC "-//W3C//DTD SVG 1.1//EN" "http://www.w3.org/Graphics/SVG/1.1/DTD/svg11.dtd">
<svg version="1.1" id="Layer_1" xmlns="http://www.w3.org/2000/svg" xmlns:xlink="http://www.w3.org/1999/xlink" x="0px" y="0px"
     width="348.385px" height="191px" viewBox="0 0 348.385 191" enable-background="new 0 0 348.385 191" xml:space="preserve">
<path d="M310.221,142.103h1.666v13.645h-1.666V142.103z M310.221,162.519h1.666v13.592h-1.666V162.519z    M313.504,142.103h1.668v13.645h-1.668V142.103z M313.504,162.519h1.668v13.592h-1.668V162.519z M316.84,142.103h1.617v13.645   h-1.617V142.103z M316.84,162.519h1.617v13.592h-1.617V162.519z M320.125,142.103h1.666v13.645h-1.666V142.103z M320.125,162.519   h1.666v13.592h-1.666V162.519z M326.744,147.209h1.666v23.799h-1.666V147.209z M330.078,147.209h1.617v23.799h-1.617V147.209z    M336.646,147.209h1.668v23.799h-1.668V147.209z" fill="#000000"/>
</svg>
